<?xml version="1.0" standalone="no"?>
<!DOCTYPE svg PUBLIC "-//W3C//DTD SVG 20010904//EN"
 "http://www.w3.org/TR/2001/REC-SVG-20010904/DTD/svg10.dtd">
<svg version="1.0" xmlns="http://www.w3.org/2000/svg"
 width="512.000000pt" height="512.000000pt" viewBox="0 0 512.000000 512.000000"
 preserveAspectRatio="xMidYMid meet">

<g transform="translate(0.000000,512.000000) scale(0.100000,-0.100000)"
fill="#000000" stroke="none">
<path d="M2350 5001 c-283 -62 -507 -234 -633 -486 -94 -189 -114 -382 -71
-682 l7 -43 -619 0 c-358 0 -649 -5 -689 -10 -172 -25 -302 -148 -335 -315 -8
-43 -10 -298 -8 -906 l3 -845 38 -76 c60 -122 161 -197 294 -218 32 -6 126
-10 210 -10 l152 0 19 -27 c10 -16 74 -129 142 -253 67 -124 134 -237 148
-253 49 -52 136 -55 188 -6 13 12 87 138 166 280 l142 259 78 0 78 0 0 -539
c0 -357 4 -549 11 -568 14 -38 57 -83 96 -99 26 -11 118 -14 454 -14 406 0
423 1 458 21 44 25 77 71 87 122 l7 39 96 -4 c118 -4 140 -14 252 -114 165
-147 217 -164 505 -164 l203 0 20 26 c26 33 27 65 2 95 -19 24 -23 24 -233 29
-207 5 -215 6 -269 32 -30 15 -95 64 -143 107 -48 44 -112 93 -144 108 -51 25
-70 28 -174 32 l-118 3 0 579 0 579 68 0 c37 0 97 7 133 14 184 39 261 127
590 673 110 183 212 342 226 353 51 40 131 14 180 -59 41 -61 34 -107 -68
-397 -55 -157 -93 -282 -96 -316 -10 -99 35 -182 126 -236 l46 -27 455 -5
c505 -6 487 -3 525 -74 34 -64 -11 -155 -86 -170 -17 -3 -206 -6 -419 -6 -214
0 -396 -3 -405 -6 -10 -4 -23 -21 -30 -37 -16 -39 -3 -80 31 -96 17 -7 133
-11 367 -11 324 0 344 -1 375 -20 69 -42 79 -130 21 -186 l-30 -29 -364 -5
c-359 -5 -365 -5 -386 -27 -29 -29 -29 -77 0 -106 21 -21 29 -22 319 -27 314
-5 325 -7 356 -54 21 -33 21 -105 -2 -131 -42 -50 -38 -50 -353 -55 -291 -5
-299 -6 -320 -27 -29 -29 -29 -77 0 -106 21 -21 31 -22 280 -27 241 -5 261 -6
281 -25 62 -55 58 -147 -9 -192 -22 -15 -58 -19 -249 -23 -220 -5 -224 -5
-243 -29 -25 -30 -24 -62 2 -95 l21 -27 242 3 c225 3 244 4 282 25 49 26 110
92 132 142 23 55 21 156 -6 215 l-22 48 44 39 c81 71 110 198 70 299 l-18 44
25 15 c13 8 43 34 66 58 72 73 93 205 48 293 -16 31 -16 34 1 43 11 5 40 31
66 58 49 49 78 119 78 184 0 96 -63 195 -154 243 l-51 27 -450 5 c-338 4 -456
8 -472 18 -28 16 -43 43 -43 77 0 20 126 399 165 497 4 10 50 52 102 94 114
91 329 306 419 418 245 304 403 660 440 992 6 54 4 64 -15 83 -55 55 -120 29
-134 -55 -24 -141 -62 -295 -93 -377 -109 -285 -314 -577 -574 -818 -56 -52
-105 -95 -109 -97 -5 -1 -20 22 -35 52 -46 93 -142 166 -243 182 -59 9 -145
-19 -194 -63 -22 -20 -66 -79 -97 -132 l-57 -95 -5 419 c-5 415 -5 421 -29
472 -22 50 -108 143 -131 143 -6 0 -29 17 -53 38 -59 54 -104 79 -172 97 -50
13 -149 15 -636 15 l-577 0 -11 93 c-15 115 -15 314 -1 387 32 171 123 336
247 451 125 115 189 140 363 140 266 1 485 -118 640 -346 65 -95 133 -132 221
-122 69 8 111 37 166 115 174 247 366 352 641 352 121 0 227 -26 342 -82 69
-34 102 -60 175 -133 103 -102 152 -181 190 -300 21 -66 32 -85 56 -99 52 -31
109 6 109 69 0 59 -80 247 -141 330 -288 391 -847 488 -1249 215 -76 -52 -181
-159 -234 -240 -68 -102 -93 -103 -158 -7 -124 184 -320 323 -533 377 -117 30
-287 35 -395 11z m762 -1383 c52 -15 121 -78 144 -130 18 -40 19 -84 22 -665
l3 -621 -47 -74 c-52 -81 -137 -189 -180 -230 -40 -37 -99 -56 -199 -64 l-85
-7 0 37 c0 62 -51 132 -113 155 -18 7 -173 11 -438 11 -440 0 -452 -1 -507
-53 -50 -46 -56 -72 -60 -243 l-4 -161 -87 -5 c-91 -5 -131 -20 -168 -60 -12
-12 -73 -115 -136 -228 -62 -113 -123 -220 -134 -237 l-20 -33 -132 240 c-177
322 -163 312 -446 320 -223 6 -253 14 -310 82 -63 75 -60 21 -60 943 l0 840
28 58 c31 61 74 101 134 123 52 18 2734 21 2795 2z m-503 -1752 c8 -9 10 -218
9 -767 l-3 -754 -162 -3 -163 -2 0 770 0 770 154 0 c117 0 156 -3 165 -14z"/>
<path d="M930 2841 c-74 -24 -139 -82 -166 -147 -16 -39 -18 -114 -4 -165 14
-50 81 -123 132 -144 55 -22 142 -23 193 -1 110 47 169 175 135 297 -13 47
-72 115 -122 140 -45 23 -129 33 -168 20z m140 -235 c0 -17 -7 -39 -14 -49
-12 -16 -14 -16 -20 -1 -8 22 -8 99 1 108 12 12 33 -26 33 -58z"/>
<path d="M1622 2840 c-71 -17 -146 -87 -171 -159 -31 -92 6 -208 86 -268 158
-118 384 -4 384 193 0 159 -143 271 -299 234z m136 -208 c12 -36 -12 -107 -28
-82 -11 17 -13 80 -4 104 8 21 20 13 32 -22z"/>
<path d="M2297 2834 c-91 -28 -167 -134 -167 -234 0 -48 31 -119 69 -158 52
-53 104 -76 176 -75 135 0 238 103 239 238 0 111 -65 199 -168 230 -60 18 -87
18 -149 -1z m159 -238 c-4 -17 -13 -37 -20 -44 -12 -12 -15 -9 -21 18 -4 17
-4 48 0 68 l7 37 20 -25 c14 -17 18 -33 14 -54z"/>
</g>
</svg>
