<?xml version="1.0" standalone="no"?>
<!DOCTYPE svg PUBLIC "-//W3C//DTD SVG 20010904//EN"
 "http://www.w3.org/TR/2001/REC-SVG-20010904/DTD/svg10.dtd">
<svg version="1.0" xmlns="http://www.w3.org/2000/svg"
 width="500.000000pt" height="500.000000pt" viewBox="0 0 2000.000000 2000.000000"
 preserveAspectRatio="xMidYMid meet">

<g transform="translate(0.000000,2000.000000) scale(0.100000,-0.100000)"
fill="#000000" stroke="none">
<path d="M7683 17154 c-57 -21 -128 -86 -161 -148 l-27 -51 -3 -4420 c-2
-4032 -1 -4424 14 -4475 28 -96 105 -175 193 -200 23 -6 637 -10 1759 -10 947
0 1722 -4 1722 -8 0 -5 -17 -24 -37 -43 -21 -18 -103 -96 -183 -174 -466 -450
-847 -788 -1020 -906 l-65 -44 -90 3 c-110 3 -479 26 -838 52 -148 11 -272 20
-276 20 -4 0 -13 18 -20 39 -6 22 -19 42 -29 45 -61 18 -419 69 -662 93 -200
20 -862 24 -984 6 l-69 -10 -101 87 c-108 93 -217 204 -286 291 l-42 54 123
16 c68 9 139 23 157 33 91 47 145 226 158 516 5 101 11 147 26 182 l20 47 -23
95 -23 95 32 45 c50 69 82 146 82 195 0 39 -5 49 -41 82 -23 21 -83 67 -133
103 l-93 66 -18 125 -18 125 26 117 c51 232 59 449 23 569 -19 60 -81 130
-123 139 -16 4 -44 14 -63 23 -24 11 -67 17 -135 18 -81 2 -110 7 -155 27 -94
42 -236 86 -363 113 -167 35 -494 45 -667 20 -220 -32 -403 -87 -582 -176
-147 -73 -248 -142 -364 -250 -50 -47 -110 -96 -133 -110 -44 -26 -132 -110
-177 -170 -43 -57 -102 -191 -124 -281 -27 -111 -35 -280 -21 -399 28 -226 75
-388 236 -814 131 -348 184 -509 225 -679 88 -361 92 -569 18 -837 -31 -114
-50 -143 -131 -203 -196 -147 -312 -315 -390 -567 -67 -217 -177 -656 -177
-706 0 -10 20 -39 44 -64 l44 -45 -29 -155 c-87 -459 -176 -983 -208 -1235
-15 -114 -31 -188 -70 -310 -109 -348 -105 -335 -93 -347 8 -8 15 -8 21 -3 4
6 44 129 88 275 64 209 83 288 93 375 21 204 216 1345 232 1360 2 2 60 -51
128 -118 152 -148 315 -298 475 -437 66 -57 121 -109 123 -116 6 -24 -65 -260
-233 -775 -108 -331 -115 -356 -150 -544 -29 -158 -85 -511 -85 -537 0 -11 8
-18 18 -18 15 0 21 18 36 128 71 499 86 560 271 1122 37 113 93 292 125 398
31 106 59 194 61 195 2 1 14 -5 27 -14 15 -11 53 -90 116 -240 136 -323 326
-775 386 -916 l51 -122 -79 -396 c-66 -328 -77 -398 -65 -402 8 -3 18 -2 23 3
4 5 41 174 81 375 l72 365 76 -79 c182 -191 428 -348 611 -391 80 -19 228 -20
295 -2 78 21 125 44 125 60 0 21 -15 20 -85 -6 -87 -33 -281 -32 -375 1 -167
58 -316 157 -475 313 -66 65 -132 135 -146 156 -15 20 -57 109 -94 197 -37 88
-110 261 -162 385 -52 124 -113 268 -135 320 -22 52 -68 163 -103 245 -358
851 -381 911 -420 1089 -5 24 1 17 65 -79 29 -44 56 -82 59 -85 3 -3 25 -26
49 -52 23 -26 42 -46 42 -44 0 2 -29 63 -64 137 -95 197 -158 416 -170 589
l-6 75 14 -80 c46 -273 138 -484 309 -709 157 -206 435 -430 694 -560 86 -43
106 -46 62 -9 -36 30 -68 94 -69 135 0 55 19 74 151 149 396 227 490 418 569
1159 62 584 57 551 111 725 87 280 206 435 333 435 l49 0 -20 -22 c-30 -33
-63 -90 -63 -110 0 -32 28 -19 53 25 53 89 105 119 283 164 325 82 719 -21
957 -251 33 -31 65 -56 73 -56 29 0 12 31 -48 90 -119 116 -268 197 -455 246
-54 14 -100 28 -103 31 -3 3 150 3 340 0 344 -6 480 -15 797 -58 l162 -22 11
-51 c80 -369 90 -779 29 -1163 -10 -68 -19 -125 -19 -128 0 -3 9 -5 19 -5 22
0 24 8 45 150 39 265 46 544 21 797 -15 146 -50 367 -62 386 -3 5 6 7 23 3 16
-3 45 -8 66 -12 40 -7 37 -1 67 -129 33 -138 44 -263 44 -475 0 -217 -11 -360
-44 -580 -32 -213 -25 -197 -94 -226 -114 -47 -327 -115 -453 -145 -443 -106
-814 -92 -1081 42 -78 39 -101 42 -101 15 0 -17 126 -78 235 -115 90 -29 174
-44 317 -56 67 -6 77 -9 82 -28 8 -29 8 -111 0 -132 -14 -36 -177 -102 -294
-119 -62 -9 -85 -16 -85 -27 0 -37 164 -12 297 45 l80 35 -4 -152 c-5 -129
-10 -170 -37 -272 -51 -192 -66 -353 -91 -960 -5 -137 -13 -275 -16 -306 -3
-34 2 -109 15 -197 36 -238 60 -540 73 -895 11 -295 14 -337 28 -335 13 3 15
35 13 248 -3 344 -28 679 -73 989 -11 74 -18 148 -15 165 3 17 9 146 15 286
25 638 40 803 89 991 36 138 53 291 45 391 l-6 73 65 43 c36 23 98 73 137 111
69 66 75 69 143 81 149 27 128 37 180 -87 91 -216 123 -370 114 -551 -9 -188
-96 -727 -216 -1347 l-39 -200 -4 -575 c-3 -519 -1 -575 13 -578 14 -2 17 24
22 224 4 125 7 385 7 578 0 193 5 369 10 391 20 90 132 696 169 920 69 417 75
470 75 645 1 149 -2 175 -27 268 -15 57 -48 154 -73 215 -25 62 -48 117 -51
123 -2 7 28 20 79 34 115 31 300 93 383 128 75 33 75 33 95 134 13 68 -5 62
240 78 581 38 1208 101 1301 130 162 50 335 227 799 820 174 222 325 412 829
1045 118 149 220 273 226 277 15 11 3085 10 3085 -1 0 -5 -33 -45 -72 -89
-202 -224 -310 -505 -310 -812 0 -204 33 -359 113 -529 83 -177 236 -364 388
-475 149 -108 341 -189 531 -222 141 -24 360 -15 500 21 113 29 252 86 331
135 27 16 51 30 54 30 3 0 5 -14 5 -30 0 -38 24 -86 49 -100 12 -6 118 -10
271 -10 l252 0 29 29 29 29 0 254 c0 244 -1 255 -21 277 -29 31 -61 41 -128
41 l-58 0 33 83 c66 162 79 239 79 462 0 178 -3 210 -24 289 -58 222 -168 419
-321 576 -41 42 -46 52 -32 57 94 31 169 100 196 180 14 42 16 471 16 4472 0
4174 -1 4429 -17 4474 -25 68 -73 120 -145 156 l-61 31 -4551 -1 c-3991 0
-4556 -2 -4593 -15z m9179 -43 c61 -26 123 -97 143 -163 14 -48 15 -497 13
-4458 -3 -4216 -4 -4407 -21 -4445 -24 -54 -82 -113 -137 -139 l-45 -21 -2357
-2 c-1662 -1 -2358 2 -2358 9 0 6 52 75 116 154 l116 143 46 -7 c26 -4 101 -7
167 -6 150 0 238 24 315 85 l51 40 90 -12 c79 -11 93 -11 123 4 20 9 42 29 50
45 18 34 36 137 36 202 l0 45 1227 0 1228 0 68 23 c218 76 367 283 367 512 0
225 -139 424 -356 508 l-69 27 -1180 3 c-854 2 -1197 0 -1240 -8 -114 -22
-210 -74 -292 -159 -85 -87 -129 -185 -147 -329 l-11 -93 -125 -53 c-271 -114
-483 -221 -615 -310 -36 -24 -216 -197 -449 -433 l-389 -393 -1746 2 -1746 3
-57 28 c-66 33 -111 82 -133 146 -13 40 -15 525 -15 4452 0 3875 2 4412 15
4449 22 62 69 115 127 144 l52 26 4547 0 c4412 0 4549 -1 4591 -19z m-1200
-7502 c227 -47 397 -256 397 -489 0 -236 -173 -446 -404 -490 -72 -13 -2389
-10 -2417 4 -11 5 -18 20 -18 38 0 83 -66 181 -156 234 -24 14 -44 28 -44 31
0 2 4 2 9 -1 5 -4 11 -2 13 2 1 5 41 28 88 53 125 67 221 133 274 189 55 59
74 96 58 112 -11 11 -185 -44 -472 -151 -74 -28 -136 -48 -139 -45 -3 2 0 42
7 87 21 144 101 275 214 350 51 33 147 72 198 80 14 2 546 5 1182 6 811 1
1173 -2 1210 -10z m-2293 -405 c-47 -50 -175 -133 -309 -202 -63 -33 -116 -64
-118 -70 -2 -6 26 -24 62 -41 36 -18 85 -51 109 -76 62 -62 70 -98 58 -266
-12 -157 -30 -216 -69 -226 -24 -6 -158 10 -169 20 -9 10 12 35 54 66 50 36
59 38 68 11 7 -22 45 -28 45 -6 0 7 -9 24 -19 38 l-20 25 29 43 c16 24 27 47
24 52 -12 19 -32 5 -72 -50 -23 -32 -62 -71 -87 -87 -31 -19 -51 -42 -64 -71
-24 -53 -81 -95 -169 -126 -55 -19 -88 -23 -182 -23 -63 0 -140 4 -171 8 l-56
9 -418 -522 c-456 -571 -644 -807 -912 -1150 -273 -349 -405 -504 -542 -641
-151 -150 -204 -181 -351 -203 -127 -20 -548 -60 -960 -91 -184 -13 -361 -27
-392 -30 -67 -7 -63 -19 -44 131 26 196 38 475 27 639 -10 138 -34 316 -47
336 -7 12 -18 12 303 -11 474 -34 744 -50 828 -50 99 0 125 14 310 163 350
282 1161 1056 1765 1684 160 166 241 223 495 348 240 119 637 278 965 388 65
22 68 21 29 -19z m-9335 -105 c-8 -41 -17 -146 -21 -234 -6 -184 10 -326 57
-509 15 -61 27 -112 25 -114 -5 -5 -75 202 -100 298 -59 229 -52 415 22 583
14 31 27 56 29 54 2 -2 -3 -37 -12 -78z m2681 -196 c4 -36 10 -74 13 -84 4
-10 54 -51 112 -92 58 -41 117 -88 132 -104 26 -27 27 -32 17 -68 -15 -53 -52
-125 -83 -163 -31 -36 -32 -50 -5 -157 17 -68 19 -88 9 -100 -17 -20 -75 -35
-137 -35 -39 0 -53 -4 -53 -14 0 -20 52 -29 116 -21 30 3 54 3 54 -2 0 -4 -5
-73 -11 -153 -18 -255 -62 -413 -130 -462 -25 -19 -139 -42 -248 -51 l-53 -4
-56 86 c-110 169 -168 345 -179 539 l-6 113 45 47 c149 155 321 453 414 719
16 45 32 80 35 77 4 -2 10 -34 14 -71z m-205 -186 c-30 -78 -114 -253 -153
-317 -35 -58 -127 -180 -135 -180 -8 0 -7 27 4 99 4 23 8 30 14 21 11 -18 56
46 121 173 45 89 170 289 176 283 2 -1 -11 -37 -27 -79z m-365 -575 c-13 -13
-16 12 -8 80 l8 73 3 -74 c2 -40 0 -76 -3 -79z m15 -122 c0 -49 34 -205 64
-298 29 -89 69 -180 120 -269 l36 -63 -30 0 c-25 0 -33 8 -64 63 -79 141 -127
300 -147 488 -12 108 -7 159 11 129 6 -8 10 -31 10 -50z m9670 -235 c3 -33 11
-70 18 -82 15 -28 15 -33 -2 -33 -29 0 -133 -63 -179 -108 -97 -95 -147 -208
-147 -331 0 -90 -17 -220 -41 -316 -39 -151 -117 -305 -155 -305 -12 0 -33 -9
-48 -21 -34 -27 -37 -98 -6 -129 20 -20 33 -20 720 -20 687 0 700 0 720 20 29
29 27 94 -5 125 -13 14 -35 25 -48 25 -18 0 -32 14 -60 63 -85 142 -124 290
-137 517 -8 158 -19 198 -73 282 -55 87 -165 175 -239 193 -32 8 -33 11 -13
45 8 14 14 51 15 83 l0 57 308 0 307 0 82 -85 c195 -203 305 -443 334 -727 18
-184 -18 -412 -91 -575 l-33 -73 -144 0 c-155 0 -190 -9 -215 -53 -9 -15 -15
-83 -18 -206 l-5 -185 -101 -56 c-187 -103 -370 -150 -589 -150 -324 0 -618
124 -847 356 -99 101 -151 175 -218 309 -154 310 -168 641 -41 972 57 145 173
317 291 427 l49 46 303 -2 303 -3 5 -60z m266 57 c23 -15 25 -62 5 -107 l-20
-45 -89 0 c-87 0 -90 1 -108 27 -21 33 -24 111 -3 124 17 10 199 12 215 1z
m77 -231 c90 -43 165 -117 207 -206 31 -64 34 -80 42 -215 13 -225 49 -373
123 -507 19 -35 35 -66 35 -68 0 -3 -267 -5 -594 -5 l-593 0 39 75 c72 137
118 309 118 444 1 215 61 354 191 444 90 61 148 78 264 74 89 -3 108 -7 168
-36z m-11678 -382 c24 -70 51 -161 59 -203 19 -87 19 -219 2 -291 l-12 -50 -7
100 c-13 184 -62 415 -136 646 -17 53 -31 100 -31 105 1 17 80 -179 125 -307z
m1961 59 c26 -35 84 -101 128 -147 l81 -85 -59 42 c-63 44 -179 152 -228 215
l-30 37 31 0 c25 0 37 -10 77 -62z m10223 -732 c7 -8 11 -27 9 -43 l-3 -28
-695 0 -695 0 -3 28 c-7 60 -42 57 698 57 577 0 679 -2 689 -14z m572 -225
c24 -19 24 -22 27 -242 3 -239 -1 -268 -44 -288 -16 -7 -102 -11 -243 -11
-206 0 -220 1 -245 21 l-26 20 0 239 0 239 26 20 c25 20 39 21 254 21 209 0
230 -2 251 -19z m-13047 -280 c-31 -108 -42 -178 -57 -377 -14 -182 -9 -294
21 -415 11 -46 26 -115 32 -154 22 -132 69 -310 100 -385 17 -41 55 -133 85
-205 29 -71 60 -147 69 -167 9 -21 12 -38 8 -38 -16 0 -141 134 -192 205 -98
136 -190 356 -229 547 -13 60 -25 78 -44 59 -26 -26 55 -306 137 -470 25 -50
64 -119 87 -153 52 -75 179 -206 236 -242 40 -25 61 -52 84 -113 l10 -28 -23
21 c-13 12 -72 63 -133 115 -220 189 -687 633 -699 665 -9 22 102 471 169 684
44 140 75 207 139 304 57 86 210 245 223 233 1 -1 -10 -40 -23 -86z m3545
-927 c-21 -23 -118 -101 -144 -116 -6 -4 -11 18 -12 57 l-2 64 42 5 c23 4 62
8 87 9 25 2 47 4 49 5 3 1 -6 -10 -20 -24z"/>
<path d="M12050 15139 c-647 -65 -1236 -422 -1600 -971 -242 -365 -360 -760
-360 -1207 0 -181 9 -279 41 -439 158 -797 787 -1465 1573 -1672 208 -55 337
-71 571 -71 202 0 339 16 521 60 218 54 442 147 631 265 l92 57 5 342 c4 356
5 379 18 371 8 -5 12 11 9 29 -1 5 3 6 9 2 5 -3 13 1 16 10 4 9 29 27 57 39
l51 22 -130 42 c-196 63 -454 124 -654 153 -52 8 -90 19 -97 28 -28 35 -53
143 -53 228 l0 85 44 49 c50 56 72 99 112 222 27 85 29 87 60 87 17 0 38 8 47
18 21 23 47 86 47 114 0 12 27 77 60 145 79 161 81 216 10 296 -26 30 -29 40
-21 56 35 64 53 251 36 366 l-8 49 27 -17 c31 -21 32 -17 10 72 -36 146 -115
263 -206 309 -27 13 -57 39 -74 64 -66 95 -201 179 -353 220 -61 17 -109 21
-246 22 -93 0 -183 -3 -199 -7 l-30 -8 30 -24 29 -24 -37 -1 c-20 0 -70 -6
-111 -14 -245 -47 -432 -213 -501 -445 -20 -68 -20 -77 -1 -61 9 7 18 11 20 8
3 -2 -5 -42 -16 -88 -29 -113 -23 -252 14 -360 14 -41 21 -76 17 -78 -27 -10
-65 -51 -81 -86 -32 -71 -25 -110 41 -244 33 -67 60 -132 60 -144 0 -13 11
-46 24 -75 26 -54 53 -72 94 -59 18 6 24 -4 51 -87 31 -92 56 -138 115 -212
29 -35 29 -39 30 -158 0 -88 -4 -138 -16 -177 l-17 -55 -135 -18 c-118 -16
-342 -59 -446 -86 -337 -87 -610 -212 -679 -312 -14 -21 -29 -38 -33 -39 -11
0 -95 138 -153 250 -101 199 -165 384 -206 605 -26 137 -37 485 -20 621 83
643 412 1182 939 1538 652 441 1506 485 2201 115 595 -317 996 -878 1117
-1564 25 -141 25 -518 1 -660 -36 -207 -85 -369 -164 -549 -23 -54 -43 -101
-43 -103 0 -2 10 -3 22 -1 17 2 31 25 65 103 295 683 230 1455 -175 2075 -215
330 -509 589 -866 765 -359 177 -787 254 -1186 214z m734 -1208 c4 -29 18 -88
31 -130 16 -50 25 -100 25 -146 0 -53 5 -77 20 -100 32 -47 60 -151 60 -220 0
-47 6 -73 21 -100 l21 -35 -30 -153 c-27 -130 -68 -274 -111 -380 -29 -73
-178 -193 -323 -262 -107 -50 -185 -68 -242 -55 -145 32 -419 227 -475 338
-33 65 -91 259 -118 397 -25 127 -26 136 -10 167 9 18 18 62 21 97 3 50 14 83
52 158 l47 93 -17 83 c-9 45 -16 85 -16 88 0 4 24 17 53 30 48 22 66 24 222
25 183 0 222 8 314 61 44 25 45 22 9 -29 -19 -28 -19 -28 1 -28 34 0 122 20
203 46 75 25 179 84 207 118 19 22 26 9 35 -63z m-1242 -503 c19 -16 41 -102
74 -293 39 -220 39 -214 19 -221 -25 -10 -42 14 -61 86 -9 36 -40 114 -70 174
-30 60 -54 122 -54 138 0 35 21 88 44 111 21 20 27 21 48 5z m1572 -25 c11
-15 21 -49 24 -77 3 -46 -1 -61 -47 -148 -28 -53 -58 -125 -67 -160 -18 -72
-38 -108 -59 -108 -19 0 -19 22 -1 102 8 35 22 115 31 178 12 86 24 131 47
178 17 34 36 62 42 62 6 0 20 -13 30 -27z m-1140 -977 c89 -91 146 -125 263
-152 82 -19 333 -14 425 9 l56 14 17 -44 c9 -24 33 -67 52 -96 40 -59 39 -66
-27 -140 -48 -54 -137 -118 -205 -147 -59 -25 -181 -50 -248 -50 -149 0 -369
101 -486 224 -32 33 -33 37 -18 54 53 59 95 233 83 350 -4 34 -3 62 0 62 4 0
44 -38 88 -84z"/>
<path d="M11895 13581 c-43 -19 -95 -73 -95 -97 0 -24 21 -16 60 25 51 52 120
68 220 51 38 -6 74 -9 80 -5 64 39 -182 64 -265 26z"/>
<path d="M12460 13591 c-26 -7 -41 -41 -19 -41 7 0 40 5 75 11 94 16 168 -2
216 -52 41 -43 58 -49 58 -20 0 24 -61 83 -102 97 -36 13 -187 16 -228 5z"/>
<path d="M12340 13358 c0 -88 21 -191 50 -248 20 -39 20 -43 5 -66 -19 -29
-72 -64 -97 -64 -11 0 -18 -8 -18 -20 0 -25 22 -25 75 -1 46 21 69 44 84 84 9
24 7 37 -15 83 -24 50 -31 86 -51 238 -12 89 -33 85 -33 -6z"/>
<path d="M11969 13386 c-15 -32 1 -81 27 -81 26 0 41 46 26 80 -15 32 -39 32
-53 1z"/>
<path d="M12575 13393 c-17 -17 -15 -67 5 -87 28 -28 61 36 41 80 -13 28 -23
30 -46 7z"/>
<path d="M12046 12831 c-4 -5 0 -13 7 -18 8 -4 21 -21 30 -38 23 -45 67 -82
112 -94 86 -23 270 -8 308 27 11 9 28 36 38 60 10 23 23 42 29 42 5 0 10 7 10
16 0 14 -9 15 -77 8 -98 -11 -298 -12 -384 -1 -43 5 -69 5 -73 -2z m464 -37
c0 -3 -8 -19 -17 -35 -23 -38 -63 -49 -183 -49 -103 0 -151 15 -178 58 l-15
22 124 -5 c102 -5 173 -1 262 14 4 0 7 -2 7 -5z"/>
<path d="M13642 11903 c-76 -50 -77 -51 -80 -456 -3 -383 0 -414 45 -468 49
-58 57 -59 462 -59 236 0 380 4 398 11 42 15 92 68 103 109 6 20 10 189 10
395 0 415 -2 422 -82 469 l-45 26 -384 0 -385 0 -42 -27z m488 -313 l0 -99
103 -3 102 -3 0 -60 0 -60 -102 -3 -103 -3 0 -99 0 -100 -60 0 -60 0 0 100 0
100 -100 0 -100 0 0 65 0 65 100 0 100 0 0 100 0 100 60 0 60 0 0 -100z"/>
<path d="M8856 9644 c-184 -44 -342 -200 -391 -385 -19 -69 -19 -209 0 -278
49 -187 208 -341 396 -386 55 -13 225 -15 1224 -15 1277 0 1238 -1 1357 62
127 67 217 175 264 316 24 69 26 88 21 182 -5 116 -26 187 -83 275 -70 110
-204 203 -331 230 -100 21 -2369 20 -2457 -1z m2459 -39 c124 -33 247 -124
309 -229 91 -155 91 -357 0 -512 -62 -106 -184 -196 -309 -229 -88 -22 -2361
-23 -2448 0 -124 32 -229 105 -296 207 -166 248 -78 588 187 722 112 57 59 55
1327 55 1021 1 1178 -1 1230 -14z"/>
<path d="M9172 9133 l3 -268 80 0 c104 0 131 9 155 48 18 29 20 51 20 217 0
128 -4 193 -13 210 -20 41 -71 60 -165 60 l-82 0 2 -267z m168 168 c6 -11 10
-87 10 -175 0 -171 -5 -186 -61 -186 l-29 0 0 190 0 190 35 0 c24 0 37 -6 45
-19z"/>
<path d="M9490 9130 l0 -270 110 0 110 0 0 40 0 40 -70 0 -70 0 0 80 0 80 55
0 55 0 0 35 0 35 -55 0 -55 0 0 75 0 75 70 0 70 0 0 40 0 40 -110 0 -110 0 0
-270z"/>
<path d="M9813 9388 c-47 -23 -54 -62 -51 -274 l3 -196 33 -29 c26 -23 41 -29
80 -29 91 0 132 49 132 158 l0 42 -40 0 -40 0 0 -48 c0 -52 -12 -72 -45 -72
-41 0 -45 16 -45 190 0 149 2 169 18 183 10 10 24 17 30 17 19 0 42 -43 42
-77 0 -32 1 -33 40 -33 l40 0 0 43 c0 52 -27 108 -60 124 -30 15 -107 16 -137
1z"/>
<path d="M10060 9130 l0 -270 110 0 110 0 0 40 0 40 -70 0 -70 0 0 230 0 230
-40 0 -40 0 0 -270z"/>
<path d="M10320 9130 l0 -270 40 0 40 0 0 270 0 270 -40 0 -40 0 0 -270z"/>
<path d="M10460 9131 l0 -271 35 0 35 0 0 188 c0 110 4 181 9 172 5 -8 25 -78
45 -155 58 -219 51 -205 97 -205 l39 0 0 270 0 270 -35 0 -34 0 -3 -151 -3
-151 -40 148 -40 149 -53 3 -52 3 0 -270z"/>
<path d="M10785 9387 c-3 -7 -4 -127 -3 -267 l3 -255 113 -3 112 -3 0 41 0 40
-70 0 -70 0 0 80 0 80 55 0 55 0 0 35 0 35 -55 0 -55 0 0 75 0 75 70 0 70 0 0
40 0 40 -110 0 c-80 0 -112 -4 -115 -13z"/>
<path d="M14301 9400 c-78 -18 -91 -61 -88 -290 2 -181 11 -215 62 -238 39
-18 106 -15 142 8 37 22 56 76 51 143 -3 42 -3 42 -43 42 l-40 0 -5 -60 c-4
-53 -8 -60 -28 -63 -48 -7 -52 8 -52 183 0 90 3 170 6 179 7 19 62 22 69 4 3
-7 7 -29 9 -48 3 -33 5 -35 45 -38 l41 -3 -1 38 c-1 109 -68 165 -168 143z"/>
<path d="M13642 9143 c-23 -142 -42 -264 -42 -270 0 -8 15 -13 39 -13 l39 0 7
50 7 50 48 0 c49 0 49 0 55 -37 4 -21 8 -44 10 -50 6 -18 85 -17 85 1 0 7 -18
125 -40 262 -22 137 -40 252 -40 257 0 4 -28 7 -63 7 l-63 0 -42 -257z m132
-65 l6 -38 -38 0 -39 0 14 93 c24 168 22 170 57 -55z"/>
<path d="M13971 9384 c-43 -31 -51 -70 -51 -254 0 -191 9 -228 59 -254 16 -9
51 -16 77 -16 39 0 51 5 80 34 32 32 34 38 34 104 l0 70 -37 -1 c-37 -2 -38
-3 -41 -42 -5 -75 -10 -85 -42 -85 -39 0 -41 10 -38 210 l3 165 35 0 c35 0 35
0 38 -47 l3 -48 40 0 39 0 0 50 c0 61 -22 107 -56 120 -40 15 -117 12 -143 -6z"/>
<path d="M14515 9388 c-3 -7 -4 -128 -3 -268 l3 -255 115 0 115 0 3 37 3 37
-73 3 -73 3 -3 72 -3 72 58 3 58 3 0 40 0 40 -57 3 -58 3 0 69 0 70 76 0 75 0
-3 38 -3 37 -113 3 c-85 2 -114 0 -117 -10z"/>
<path d="M14795 9378 c-3 -12 -4 -133 -3 -268 l3 -245 43 -3 42 -3 0 99 0 99
51 7 c70 9 104 44 114 114 11 80 -2 149 -35 186 -27 30 -32 31 -119 34 -88 4
-90 3 -96 -20z m153 -70 c7 -7 12 -40 12 -80 0 -72 -11 -88 -59 -88 -20 0 -21
6 -21 90 l0 90 28 0 c15 0 33 -5 40 -12z"/>
<path d="M15060 9360 c0 -40 0 -40 40 -40 l40 0 2 -227 3 -228 43 -3 42 -3 0
230 0 231 45 0 45 0 0 40 0 40 -130 0 -130 0 0 -40z"/>
<path d="M6675 8740 c-4 -6 14 -33 39 -61 29 -32 55 -77 75 -127 16 -42 34
-78 40 -80 58 -19 -54 233 -119 268 -23 12 -27 12 -35 0z"/>
<path d="M15931 6353 c-50 -25 -73 -68 -68 -126 11 -124 172 -161 237 -54 38
61 14 145 -50 179 -43 22 -75 23 -119 1z m120 -52 c33 -34 38 -74 12 -111 -24
-35 -33 -40 -76 -40 -49 0 -87 38 -87 87 0 46 46 93 90 93 22 0 41 -9 61 -29z"/>
<path d="M16960 6160 l0 -60 -55 0 c-54 0 -55 0 -55 -30 0 -30 1 -30 55 -30
l54 0 3 -57 c3 -57 3 -58 36 -61 l32 -3 0 60 0 61 60 0 c60 0 60 0 60 30 0 28
-1 29 -57 32 l-58 3 -3 58 -3 57 -34 0 -35 0 0 -60z"/>
<path d="M4120 13613 c-542 -39 -1025 -392 -1221 -892 -60 -152 -88 -290 -96
-457 -18 -412 124 -781 412 -1069 116 -117 223 -195 361 -264 213 -105 359
-142 595 -149 185 -5 299 8 454 53 88 25 267 106 353 160 l42 26 0 -55 c0 -47
4 -61 29 -88 l29 -33 302 0 302 0 29 33 29 32 0 296 0 296 -29 29 c-28 28 -33
29 -120 29 -50 0 -91 4 -91 9 0 5 13 40 29 77 74 175 105 338 105 549 0 186
-16 292 -70 451 -180 539 -649 910 -1219 964 -107 10 -131 10 -225 3z m368
-63 c335 -68 631 -255 838 -529 113 -150 212 -375 251 -569 25 -123 25 -395 0
-512 -23 -106 -81 -282 -110 -335 l-23 -40 -188 -5 -188 -5 -24 -28 c-24 -28
-24 -30 -24 -243 l0 -214 -57 -36 c-251 -161 -575 -242 -858 -214 -352 34
-644 175 -881 423 -182 191 -302 414 -359 672 -25 110 -30 379 -11 500 95 577
551 1042 1117 1139 145 25 146 25 285 21 78 -2 172 -12 232 -25z m1186 -2041
l26 -20 0 -285 c0 -271 -1 -285 -20 -304 -19 -19 -33 -20 -300 -20 -267 0
-281 1 -300 20 -19 19 -20 33 -20 303 0 155 4 287 8 293 20 30 52 33 313 34
255 0 267 -1 293 -21z"/>
<path d="M4100 12885 c-459 -90 -852 -169 -872 -175 -49 -14 -88 -65 -88 -114
0 -21 11 -95 25 -164 13 -70 58 -302 100 -517 100 -517 95 -495 125 -528 40
-45 91 -45 305 -3 99 19 480 94 848 165 412 80 678 137 697 148 31 18 60 67
60 102 0 11 -18 114 -41 228 -22 115 -72 369 -110 567 -38 197 -76 371 -85
387 -18 36 -52 59 -95 64 -19 2 -410 -70 -869 -160z m910 98 c63 -57 69 -46
-304 -501 -307 -373 -344 -414 -392 -438 -70 -34 -145 -34 -217 -1 -28 14
-245 130 -482 260 l-430 234 -3 43 c-3 42 12 71 48 90 8 4 274 58 590 120 693
134 1068 207 1095 213 45 10 66 6 95 -20z m146 -624 c116 -595 113 -577 83
-612 -23 -26 -57 -34 -892 -197 -600 -117 -875 -166 -890 -161 -48 19 -58 44
-102 268 -115 587 -158 814 -153 818 3 3 126 -60 274 -141 148 -80 298 -162
334 -181 162 -88 230 -127 228 -132 -2 -4 -123 -123 -269 -266 -245 -239 -293
-295 -255 -295 8 0 138 122 289 270 l275 271 47 -12 c94 -24 205 0 266 57 l26
25 69 -30 c38 -16 141 -59 229 -96 88 -37 217 -92 287 -121 70 -30 132 -54
137 -54 6 0 11 8 11 18 0 13 -78 50 -346 162 -190 79 -347 147 -350 151 -2 4
93 126 212 271 119 145 255 311 302 369 48 58 88 105 90 104 2 -2 46 -220 98
-486z"/>
<path d="M5340 11305 l0 -65 -65 0 -65 0 0 -35 0 -35 65 0 65 0 0 -70 0 -70
40 0 40 0 0 70 0 70 65 0 65 0 0 35 0 35 -65 0 -65 0 0 65 0 65 -40 0 -40 0 0
-65z"/>
<path d="M8186 6243 c-154 -229 -394 -475 -584 -598 -94 -60 -219 -119 -302
-141 -75 -20 -89 -29 -72 -46 15 -15 85 1 189 42 259 104 552 362 779 686 35
51 64 99 64 108 0 34 -31 13 -74 -51z"/>
<path d="M10690 5095 c-215 -46 -392 -145 -543 -305 -134 -141 -223 -314 -262
-509 -24 -116 -16 -342 15 -456 97 -357 383 -641 736 -730 249 -64 503 -34
731 85 l91 47 6 -29 c3 -16 19 -43 35 -59 l29 -29 192 0 c202 0 237 7 260 49
6 12 10 100 10 216 0 116 -4 204 -10 216 -16 29 -63 49 -116 49 -40 0 -45 2
-39 18 131 302 124 619 -19 897 -130 253 -354 438 -633 521 -76 23 -110 27
-253 30 -116 2 -184 -1 -230 -11z m388 -36 c367 -68 673 -356 773 -729 20 -71
23 -110 23 -240 0 -171 -11 -232 -65 -370 l-32 -80 -117 0 c-90 0 -130 4 -174
20 -69 23 -274 70 -309 70 -32 0 -44 20 -52 86 -6 44 -4 53 23 86 16 21 35 58
42 83 9 32 20 49 39 58 14 7 29 25 34 42 5 17 20 54 33 83 29 64 31 122 5 146
-16 14 -20 35 -23 124 -5 130 -18 162 -120 286 -57 69 -214 103 -350 77 -85
-17 -128 -43 -189 -115 -80 -93 -94 -132 -94 -253 0 -71 -3 -104 -12 -107 -6
-3 -17 -23 -24 -45 -11 -37 -9 -45 20 -105 17 -35 31 -69 31 -75 0 -25 25 -61
42 -61 13 0 26 -17 44 -57 13 -32 32 -65 41 -75 11 -13 16 -37 16 -76 0 -95
-1 -96 -100 -110 -184 -25 -401 -97 -469 -156 l-39 -34 -36 63 c-225 388 -160
876 160 1193 88 87 165 141 275 193 190 89 398 116 604 78z m-2 -323 c48 -26
66 -47 132 -158 29 -48 41 -127 31 -210 -7 -60 1 -85 23 -72 4 3 13 -7 18 -21
8 -21 5 -35 -12 -68 -12 -23 -27 -60 -33 -82 -10 -31 -17 -39 -33 -37 -17 2
-23 -8 -41 -66 -12 -39 -32 -81 -48 -98 -24 -25 -28 -37 -27 -89 0 -35 8 -75
18 -97 17 -35 21 -37 89 -48 84 -14 268 -58 285 -69 10 -6 9 -16 -3 -44 -11
-26 -15 -73 -15 -167 l0 -130 -52 -34 c-71 -45 -182 -92 -276 -118 -117 -32
-353 -32 -477 1 -182 48 -328 132 -463 268 -62 62 -83 89 -80 106 9 60 280
158 535 192 46 6 53 10 62 37 6 17 11 64 11 104 0 64 -3 76 -26 104 -15 17
-35 58 -45 91 -25 80 -28 83 -50 63 -18 -16 -19 -16 -19 1 0 10 -14 49 -32 87
-26 58 -29 72 -20 93 7 14 17 24 24 23 10 -2 13 25 13 117 0 139 8 159 98 258
72 80 125 99 262 94 87 -3 108 -7 151 -31z m860 -1157 c17 -19 19 -38 19 -204
0 -243 18 -225 -224 -225 -102 0 -191 4 -197 8 -28 18 -34 56 -34 217 0 161 6
199 34 217 6 4 95 8 197 8 176 0 187 -1 205 -21z"/>
<path d="M11700 3451 l0 -51 -45 0 c-41 0 -45 -2 -45 -25 0 -23 4 -25 45 -25
l45 0 0 -50 c0 -49 1 -50 30 -50 29 0 30 1 30 50 l0 50 45 0 c41 0 45 2 45 25
0 23 -4 25 -44 25 l-45 0 -3 48 c-3 43 -5 47 -30 50 -27 3 -28 2 -28 -47z"/>
<path d="M6520 4228 c-193 -489 -508 -851 -850 -978 -87 -32 -190 -50 -289
-50 -63 0 -71 -2 -71 -19 0 -59 310 -16 475 66 255 127 489 385 667 734 62
120 123 263 130 304 2 12 -3 21 -13 23 -12 2 -25 -19 -49 -80z"/>
</g>
</svg>
